<svg xmlns="http://www.w3.org/2000/svg" viewBox="0 0 32 32">
  <rect width="32" height="32" rx="6" fill="#0F766E"/>
  <path d="M16 6C10.477 6 6 10.477 6 16s4.477 10 10 10 10-4.477 10-10S21.523 6 16 6zm0 18c-4.411 0-8-3.589-8-8s3.589-8 8-8 8 3.589 8 8-3.589 8-8 8z" fill="white"/>
  <circle cx="16" cy="12" r="2.5" fill="white"/>
  <path d="M16 15c-1.5 0-2.5 1-2.5 2v5c0 .5.5 1 1 1h3c.5 0 1-.5 1-1v-5c0-1-1-2-2.5-2z" fill="white"/>
  <path d="M12 19h8" stroke="white" stroke-width="2" stroke-linecap="round"/>
</svg>
